<?xml version="1.0" standalone="no"?>
<!DOCTYPE svg PUBLIC "-//W3C//DTD SVG 20010904//EN"
 "http://www.w3.org/TR/2001/REC-SVG-20010904/DTD/svg10.dtd">
<svg version="1.0" xmlns="http://www.w3.org/2000/svg"
 width="400.000000pt" height="435.000000pt" viewBox="0 0 400.000000 435.000000"
 preserveAspectRatio="xMidYMid meet">
<metadata>
Created by potrace 1.14, written by Peter Selinger 2001-2017
</metadata>
<g transform="translate(0.000000,435.000000) scale(0.100000,-0.100000)"
fill="#000000" stroke="none">
<path d="M1565 3920 c-148 -24 -222 -58 -370 -170 -58 -44 -114 -80 -124 -80
-24 0 -73 -39 -68 -54 3 -6 -6 -27 -19 -46 -30 -43 -30 -39 1 35 30 72 30 86
7 115 -25 30 -56 19 -83 -28 l-20 -37 6 35 c7 50 -21 91 -86 124 -58 28 -101
32 -160 14 -81 -24 -158 -119 -159 -193 0 -83 51 -159 116 -171 78 -14 163 49
151 112 -2 13 0 21 4 18 5 -3 9 -20 9 -39 0 -24 -9 -42 -31 -64 -79 -79 -212
-52 -260 53 -18 40 -18 40 -24 13 -9 -33 10 -113 35 -155 26 -43 87 -81 140
-88 44 -6 84 4 188 47 32 13 35 13 53 -10 27 -33 24 -96 -12 -252 -68 -295
-65 -588 6 -635 14 -9 25 -25 25 -35 0 -10 10 -24 23 -30 48 -25 99 -74 131
-123 47 -74 148 -365 156 -449 8 -86 35 -108 88 -71 18 12 23 13 27 2 139
-403 285 -610 552 -786 54 -35 74 -54 79 -75 4 -20 9 -26 16 -19 8 8 25 -4 56
-39 24 -27 47 -47 50 -44 3 3 23 -11 43 -31 22 -21 44 -34 52 -31 9 3 30 -10
53 -34 21 -21 41 -35 44 -29 3 5 28 -6 55 -25 51 -37 71 -43 77 -23 3 7 12 6
30 -6 34 -22 88 -38 88 -25 0 5 23 -2 51 -17 33 -16 54 -22 58 -15 5 7 26 4
66 -8 39 -13 64 -16 72 -9 8 6 25 2 53 -12 41 -21 42 -21 47 -2 5 19 6 19 49
-4 l45 -24 20 35 c11 19 29 37 40 40 35 12 46 55 60 238 14 199 7 317 -33 532
-24 129 -28 243 -14 396 11 126 3 181 -36 224 l-30 35 85 0 c106 0 137 10 137
46 0 14 -70 164 -156 332 l-157 307 -8 125 c-10 156 -30 238 -85 347 -31 60
-44 98 -44 127 -1 159 -85 282 -257 377 -62 34 -74 45 -69 62 10 41 -11 55
-156 102 -258 83 -523 120 -683 95z m425 -420 c193 -24 439 -92 514 -141 95
-63 183 -205 226 -363 14 -49 25 -127 29 -205 l7 -126 142 -277 c78 -153 142
-280 142 -283 0 -3 -38 -5 -84 -5 -64 0 -88 -4 -100 -16 -22 -22 -20 -50 5
-68 21 -14 20 -15 -17 -21 -146 -22 -217 -51 -283 -115 -52 -51 -87 -121 -102
-205 l-11 -68 -132 6 c-147 6 -216 22 -326 74 -103 49 -210 157 -267 268 -138
271 -132 494 21 760 91 160 100 198 101 410 1 206 13 260 71 322 l34 36 -265
-6 c-146 -4 -265 -3 -265 1 0 28 30 32 250 32 124 0 264 -5 310 -10z m-545
-904 c14 -9 34 -35 46 -58 20 -38 21 -51 13 -128 -14 -149 -11 -193 19 -250
39 -74 37 -80 -26 -80 -41 0 -63 6 -98 28 -91 58 -158 175 -167 292 -11 160
105 267 213 196z"/>
</g>
</svg>
